<?xml version="1.0" encoding="UTF-8"?>
<svg xmlns="http://www.w3.org/2000/svg" width="900" height="650" viewBox="0 0 900 650">
<rect width="100%" height="100%" fill="white"/>
<g font-family="Arial, sans-serif" fill="#111">
<text x="450.0" y="34" font-size="24" text-anchor="middle">Ex = 9.44 MeV</text>
<line x1="105" y1="565.00" x2="865" y2="565.00" stroke="#d5d5d5" stroke-width="1"/>
<text x="91" y="571.00" font-size="18" text-anchor="end">10^-4</text>
<line x1="105" y1="440.00" x2="865" y2="440.00" stroke="#d5d5d5" stroke-width="1"/>
<text x="91" y="446.00" font-size="18" text-anchor="end">10^-3</text>
<line x1="105" y1="315.00" x2="865" y2="315.00" stroke="#d5d5d5" stroke-width="1"/>
<text x="91" y="321.00" font-size="18" text-anchor="end">10^-2</text>
<line x1="105" y1="190.00" x2="865" y2="190.00" stroke="#d5d5d5" stroke-width="1"/>
<text x="91" y="196.00" font-size="18" text-anchor="end">10^-1</text>
<line x1="105" y1="65.00" x2="865" y2="65.00" stroke="#d5d5d5" stroke-width="1"/>
<text x="91" y="71.00" font-size="18" text-anchor="end">10^0</text>
<line x1="105.00" y1="65" x2="105.00" y2="565" stroke="#e3e3e3" stroke-width="1"/>
<text x="105.00" y="595" font-size="18" text-anchor="middle">0</text>
<line x1="189.44" y1="65" x2="189.44" y2="565" stroke="#e3e3e3" stroke-width="1"/>
<text x="189.44" y="595" font-size="18" text-anchor="middle">10</text>
<line x1="273.89" y1="65" x2="273.89" y2="565" stroke="#e3e3e3" stroke-width="1"/>
<text x="273.89" y="595" font-size="18" text-anchor="middle">20</text>
<line x1="358.33" y1="65" x2="358.33" y2="565" stroke="#e3e3e3" stroke-width="1"/>
<text x="358.33" y="595" font-size="18" text-anchor="middle">30</text>
<line x1="442.78" y1="65" x2="442.78" y2="565" stroke="#e3e3e3" stroke-width="1"/>
<text x="442.78" y="595" font-size="18" text-anchor="middle">40</text>
<line x1="527.22" y1="65" x2="527.22" y2="565" stroke="#e3e3e3" stroke-width="1"/>
<text x="527.22" y="595" font-size="18" text-anchor="middle">50</text>
<line x1="611.67" y1="65" x2="611.67" y2="565" stroke="#e3e3e3" stroke-width="1"/>
<text x="611.67" y="595" font-size="18" text-anchor="middle">60</text>
<line x1="696.11" y1="65" x2="696.11" y2="565" stroke="#e3e3e3" stroke-width="1"/>
<text x="696.11" y="595" font-size="18" text-anchor="middle">70</text>
<line x1="780.56" y1="65" x2="780.56" y2="565" stroke="#e3e3e3" stroke-width="1"/>
<text x="780.56" y="595" font-size="18" text-anchor="middle">80</text>
<line x1="865.00" y1="65" x2="865.00" y2="565" stroke="#e3e3e3" stroke-width="1"/>
<text x="865.00" y="595" font-size="18" text-anchor="middle">90</text>
<rect x="105" y="65" width="760" height="500" fill="none" stroke="#111" stroke-width="2"/>
<text x="485.0" y="626" font-size="21" text-anchor="middle">theta_c.m. (deg)</text>
<text x="28" y="315.0" font-size="21" text-anchor="middle" transform="rotate(-90 28 315.0)">d sigma / d Omega (mb/sr)</text>
<polyline points="105.00,142.70 105.84,160.57 106.69,160.57 107.53,160.61 108.38,160.61 109.22,160.61 110.07,160.65 110.91,160.65 111.76,160.69 112.60,160.72 113.44,160.76 114.29,160.80 115.13,160.84 115.98,160.87 116.82,160.91 117.67,160.95 118.51,161.03 119.36,161.06 120.20,161.14 121.04,161.22 121.89,161.26 122.73,161.33 123.58,161.41 124.42,161.49 125.27,161.60 126.11,161.68 126.96,161.75 127.80,161.87 128.64,161.95 129.49,162.06 130.33,162.18 131.18,162.30 132.02,162.41 132.87,162.53 133.71,162.65 134.56,162.81 135.40,162.92 136.24,163.08 137.09,163.24 137.93,163.36 138.78,163.52 139.62,163.68 140.47,163.88 141.31,164.04 142.16,164.20 143.00,164.40 143.84,164.60 144.69,164.77 145.53,164.97 146.38,165.18 147.22,165.42 148.07,165.63 148.91,165.84 149.76,166.09 150.60,166.34 151.44,166.59 152.29,166.84 153.13,167.10 153.98,167.35 154.82,167.61 155.67,167.91 156.51,168.17 157.36,168.48 158.20,168.78 159.04,169.09 159.89,169.40 160.73,169.71 161.58,170.07 162.42,170.39 163.27,170.75 164.11,171.12 164.96,171.48 165.80,171.85 166.64,172.23 167.49,172.60 168.33,172.98 169.18,173.41 170.02,173.84 170.87,174.23 171.71,174.66 172.56,175.11 173.40,175.55 174.24,176.00 175.09,176.45 175.93,176.96 176.78,177.42 177.62,177.94 178.47,178.41 179.31,178.94 180.16,179.47 181.00,179.95 181.84,180.51 182.69,181.06 183.53,181.62 184.38,182.19 185.22,182.76 186.07,183.34 186.91,183.94 187.76,184.54 188.60,185.16 189.44,185.78 190.29,186.41 191.13,187.06 191.98,187.71 192.82,188.37 193.67,189.04 194.51,189.73 195.36,190.42 196.20,191.12 197.04,191.84 197.89,192.56 198.73,193.28 199.58,194.03 200.42,194.78 201.27,195.54 202.11,196.32 202.96,197.10 203.80,197.88 204.64,198.69 205.49,199.50 206.33,200.32 207.18,201.15 208.02,201.99 208.87,202.84 209.71,203.70 210.56,204.57 211.40,205.45 212.24,206.33 213.09,207.23 213.93,208.13 214.78,209.05 215.62,209.97 216.47,210.90 217.31,211.84 218.16,212.78 219.00,213.74 219.84,214.70 220.69,215.67 221.53,216.66 222.38,217.64 223.22,218.64 224.07,219.63 224.91,220.64 225.76,221.65 226.60,222.67 227.44,223.70 228.29,224.73 229.13,225.76 229.98,226.81 230.82,227.84 231.67,228.89 232.51,229.94 233.36,230.99 234.20,232.05 235.04,233.10 235.89,234.16 236.73,235.22 237.58,236.28 238.42,237.34 239.27,238.39 240.11,239.46 240.96,240.50 241.80,241.56 242.64,242.61 243.49,243.65 244.33,244.69 245.18,245.73 246.02,246.75 246.87,247.77 247.71,248.80 248.56,249.80 249.40,250.81 250.24,251.81 251.09,252.79 251.93,253.75 252.78,254.73 253.62,255.67 254.47,256.62 255.31,257.53 256.16,258.44 257.00,259.34 257.84,260.23 258.69,261.11 259.53,261.96 260.38,262.80 261.22,263.62 262.07,264.44 262.91,265.21 263.76,265.99 264.60,266.73 265.44,267.48 266.29,268.19 267.13,268.88 267.98,269.58 268.82,270.23 269.67,270.86 270.51,271.49 271.36,272.08 272.20,272.67 273.04,273.24 273.89,273.78 274.73,274.30 275.58,274.83 276.42,275.29 277.27,275.76 278.11,276.24 278.96,276.65 279.80,277.07 280.64,277.49 281.49,277.88 282.33,278.24 283.18,278.61 284.02,278.94 284.87,279.27 285.71,279.58 286.56,279.88 287.40,280.16 288.24,280.43 289.09,280.70 289.93,280.98 290.78,281.22 291.62,281.47 292.47,281.68 293.31,281.89 294.16,282.14 295.00,282.31 295.84,282.53 296.69,282.74 297.53,282.92 298.38,283.14 299.22,283.32 300.07,283.50 300.91,283.68 301.76,283.86 302.60,284.08 303.44,284.27 304.29,284.45 305.13,284.64 305.98,284.82 306.82,285.05 307.67,285.23 308.51,285.46 309.36,285.65 310.20,285.87 311.04,286.10 311.89,286.33 312.73,286.56 313.58,286.83 314.42,287.06 315.27,287.34 316.11,287.61 316.96,287.88 317.80,288.16 318.64,288.48 319.49,288.80 320.33,289.12 321.18,289.44 322.02,289.81 322.87,290.13 323.71,290.51 324.56,290.88 325.40,291.30 326.24,291.72 327.09,292.10 327.93,292.57 328.78,293.00 329.62,293.48 330.47,293.92 331.31,294.40 332.16,294.94 333.00,295.43 333.84,295.98 334.69,296.53 335.53,297.09 336.38,297.65 337.22,298.26 338.07,298.84 338.91,299.47 339.76,300.11 340.60,300.75 341.44,301.45 342.29,302.12 343.13,302.84 343.98,303.51 344.82,304.25 345.67,305.01 346.51,305.75 347.36,306.53 348.20,307.32 349.04,308.12 349.89,308.94 350.73,309.77 351.58,310.62 352.42,311.49 353.27,312.36 354.11,313.25 354.96,314.16 355.80,315.08 356.64,316.01 357.49,316.96 358.33,317.91 359.18,318.89 360.02,319.87 360.87,320.87 361.71,321.88 362.56,322.90 363.40,323.93 364.24,324.97 365.09,326.03 365.93,327.09 366.78,328.16 367.62,329.24 368.47,330.33 369.31,331.43 370.16,332.53 371.00,333.64 371.84,334.75 372.69,335.87 373.53,337.00 374.38,338.12 375.22,339.26 376.07,340.38 376.91,341.51 377.76,342.63 378.60,343.76 379.44,344.88 380.29,346.00 381.13,347.11 381.98,348.22 382.82,349.31 383.67,350.39 384.51,351.48 385.36,352.53 386.20,353.57 387.04,354.61 387.89,355.62 388.73,356.61 389.58,357.59 390.42,358.53 391.27,359.47 392.11,360.36 392.96,361.23 393.80,362.07 394.64,362.90 395.49,363.67 396.33,364.42 397.18,365.14 398.02,365.83 398.87,366.46 399.71,367.07 400.56,367.63 401.40,368.16 402.24,368.65 403.09,369.10 403.93,369.51 404.78,369.86 405.62,370.19 406.47,370.47 407.31,370.71 408.16,370.91 409.00,371.07 409.84,371.20 410.69,371.27 411.53,371.33 412.38,371.33 413.22,371.31 414.07,371.24 414.91,371.14 415.76,371.02 416.60,370.85 417.44,370.67 418.29,370.45 419.13,370.22 419.98,369.95 420.82,369.67 421.67,369.37 422.51,369.03 423.36,368.70 424.20,368.33 425.04,367.95 425.89,367.58 426.73,367.19 427.58,366.78 428.42,366.36 429.27,365.94 430.11,365.52 430.96,365.09 431.80,364.65 432.64,364.22 433.49,363.78 434.33,363.35 435.18,362.91 436.02,362.49 436.87,362.06 437.71,361.64 438.56,361.23 439.40,360.82 440.24,360.42 441.09,360.01 441.93,359.63 442.78,359.26 443.62,358.88 444.47,358.53 445.31,358.17 446.16,357.84 447.00,357.52 447.84,357.20 448.69,356.89 449.53,356.60 450.38,356.32 451.22,356.06 452.07,355.81 452.91,355.56 453.76,355.34 454.60,355.13 455.44,354.92 456.29,354.75 457.13,354.57 457.98,354.41 458.82,354.28 459.67,354.14 460.51,354.02 461.36,353.93 462.20,353.85 463.04,353.77 463.89,353.72 464.73,353.68 465.58,353.65 466.42,353.64 467.27,353.64 468.11,353.67 468.96,353.69 469.80,353.75 470.64,353.80 471.49,353.88 472.33,353.97 473.18,354.08 474.02,354.21 474.87,354.34 475.71,354.49 476.56,354.67 477.40,354.84 478.24,355.05 479.09,355.26 479.93,355.49 480.78,355.73 481.62,355.99 482.47,356.27 483.31,356.56 484.16,356.87 485.00,357.18 485.84,357.52 486.69,357.87 487.53,358.23 488.38,358.62 489.22,359.01 490.07,359.42 490.91,359.85 491.76,360.28 492.60,360.75 493.44,361.22 494.29,361.70 495.13,362.20 495.98,362.73 496.82,363.24 497.67,363.80 498.51,364.36 499.36,364.93 500.20,365.52 501.04,366.13 501.89,366.75 502.73,367.37 503.58,368.01 504.42,368.66 505.27,369.35 506.11,370.02 506.96,370.73 507.80,371.44 508.64,372.16 509.49,372.91 510.33,373.65 511.18,374.40 512.02,375.18 512.87,375.97 513.71,376.75 514.56,377.57 515.40,378.37 516.24,379.19 517.09,380.05 517.93,380.89 518.78,381.75 519.62,382.60 520.47,383.49 521.31,384.36 522.16,385.26 523.00,386.14 523.84,387.06 524.69,387.97 525.53,388.88 526.38,389.82 527.22,390.75 528.07,391.68 528.91,392.62 529.76,393.58 530.60,394.52 531.44,395.49 532.29,396.44 533.13,397.40 533.98,398.39 534.82,399.33 535.67,400.32 536.51,401.30 537.36,402.26 538.20,403.24 539.04,404.24 539.89,405.22 540.73,406.19 541.58,407.17 542.42,408.14 543.27,409.12 544.11,410.12 544.96,411.10 545.80,412.06 546.64,413.04 547.49,414.00 548.33,414.97 549.18,415.92 550.02,416.89 550.87,417.83 551.71,418.78 552.56,419.76 553.40,420.66 554.24,421.62 555.09,422.55 555.93,423.46 556.78,424.37 557.62,425.25 558.47,426.15 559.31,427.06 560.16,427.94 561.00,428.78 561.84,429.63 562.69,430.49 563.53,431.32 564.38,432.14 565.22,432.95 566.07,433.75 566.91,434.54 567.76,435.31 568.60,436.07 569.44,436.81 570.29,437.54 571.13,438.26 571.98,438.96 572.82,439.65 573.67,440.32 574.51,440.98 575.36,441.62 576.20,442.25 577.04,442.86 577.89,443.46 578.73,444.04 579.58,444.61 580.42,445.16 581.27,445.70 582.11,446.22 582.96,446.73 583.80,447.24 584.64,447.72 585.49,448.19 586.33,448.65 587.18,449.10 588.02,449.54 588.87,449.96 589.71,450.38 590.56,450.79 591.40,451.19 592.24,451.58 593.09,451.97 593.93,452.34 594.78,452.71 595.62,453.08 596.47,453.44 597.31,453.80 598.16,454.15 599.00,454.51 599.84,454.86 600.69,455.21 601.53,455.56 602.38,455.91 603.22,456.25 604.07,456.61 604.91,456.96 605.76,457.32 606.60,457.67 607.44,458.03 608.29,458.40 609.13,458.76 609.98,459.14 610.82,459.52 611.67,459.90 612.51,460.29 613.36,460.68 614.20,461.08 615.04,461.49 615.89,461.90 616.73,462.32 617.58,462.75 618.42,463.18 619.27,463.62 620.11,464.06 620.96,464.52 621.80,464.98 622.64,465.44 623.49,465.92 624.33,466.41 625.18,466.89 626.02,467.39 626.87,467.88 627.71,468.39 628.56,468.91 629.40,469.43 630.24,469.96 631.09,470.49 631.93,471.03 632.78,471.57 633.62,472.13 634.47,472.69 635.31,473.25 636.16,473.82 637.00,474.39 637.84,474.97 638.69,475.57 639.53,476.16 640.38,476.76 641.22,477.36 642.07,477.97 642.91,478.57 643.76,479.20 644.60,479.83 645.44,480.45 646.29,481.09 647.13,481.73 647.98,482.37 648.82,483.03 649.67,483.69 650.51,484.35 651.36,485.01 652.20,485.69 653.04,486.37 653.89,487.06 654.73,487.76 655.58,488.45 656.42,489.15 657.27,489.86 658.11,490.58 658.96,491.31 659.80,492.03 660.64,492.78 661.49,493.53 662.33,494.28 663.18,495.02 664.02,495.80 664.87,496.57 665.71,497.34 666.56,498.13 667.40,498.93 668.24,499.73 669.09,500.55 669.93,501.37 670.78,502.18 671.62,503.02 672.47,503.86 673.31,504.70 674.16,505.57 675.00,506.42 675.84,507.31 676.69,508.19 677.53,509.06 678.38,509.97 679.22,510.87 680.07,511.77 680.91,512.70 681.76,513.62 682.60,514.56 683.44,515.49 684.29,516.44 685.13,517.40 685.98,518.36 686.82,519.33 687.67,520.31 688.51,521.29 689.36,522.29 690.20,523.27 691.04,524.27 691.89,525.29 692.73,526.30 693.58,527.33 694.42,528.34 695.27,529.38 696.11,530.43 696.96,531.43 697.80,532.49 698.64,533.54 699.49,534.56 700.33,535.61 701.18,536.68 702.02,537.69 702.87,538.76 703.71,539.77 704.56,540.84 705.40,541.84 706.24,542.87 707.09,543.92 707.93,544.89 708.78,545.93 709.62,546.90 710.47,547.88 711.31,548.84 712.16,549.81 713.00,550.75 713.84,551.66 714.69,552.58 715.53,553.46 716.38,554.31 717.22,555.11 718.07,555.94 718.91,556.72 719.76,557.46 720.60,558.17 721.44,558.86 722.29,559.50 723.13,560.11 723.98,560.68 724.82,561.21 725.67,561.70 726.51,562.15 727.36,562.55 728.20,562.92 729.04,563.24 729.89,563.51 730.73,563.74 731.58,563.92 732.42,564.06 733.27,564.15 734.11,564.20 734.96,564.20 735.80,564.16 736.64,564.08 737.49,563.95 738.33,563.78 739.18,563.57 740.02,563.32 740.87,563.03 741.71,562.72 742.56,562.36 743.40,561.96 744.24,561.54 745.09,561.09 745.93,560.60 746.78,560.10 747.62,559.56 748.47,559.00 749.31,558.42 750.16,557.82 751.00,557.20 751.84,556.57 752.69,555.91 753.53,555.22 754.38,554.58 755.22,553.88 756.07,553.15 756.91,552.47 757.76,551.76 758.60,551.00 759.44,550.25 760.29,549.52 761.13,548.79 761.98,548.07 762.82,547.32 763.67,546.58 764.51,545.84 765.36,545.07 766.20,544.36 767.04,543.61 767.89,542.87 768.73,542.14 769.58,541.42 770.42,540.71 771.27,539.97 772.11,539.28 772.96,538.60 773.80,537.88 774.64,537.22 775.49,536.56 776.33,535.87 777.18,535.23 778.02,534.60 778.87,533.97 779.71,533.39 780.56,532.78 781.40,532.21 782.24,531.64 783.09,531.08 783.93,530.53 784.78,530.02 785.62,529.51 786.47,529.04 787.31,528.54 788.16,528.11 789.00,527.65 789.84,527.26 790.69,526.84 791.53,526.46 792.38,526.11 793.22,525.76 794.07,525.45 794.91,525.17 795.76,524.89 796.60,524.61 797.44,524.36 798.29,524.15 799.13,523.97 799.98,523.78 800.82,523.60 801.67,523.48 802.51,523.36 803.36,523.27 804.20,523.18 805.04,523.12 805.89,523.09 806.73,523.06 807.58,523.06 808.42,523.06 809.27,523.12 810.11,523.15 810.96,523.24 811.80,523.30 812.64,523.42 813.49,523.54 814.33,523.66 815.18,523.81 816.02,523.97 816.87,524.15 817.71,524.33 818.56,524.52 819.40,524.73 820.24,524.95 821.09,525.17 821.93,525.39 822.78,525.64 823.62,525.89 824.47,526.14 825.31,526.40 826.16,526.65 827.00,526.94 827.84,527.20 828.69,527.46 829.53,527.75 830.38,528.01 831.22,528.28 832.07,528.54 832.91,528.81 833.76,529.07 834.60,529.31 835.44,529.58 836.29,529.81 837.13,530.05 837.98,530.29 838.82,530.50 839.67,530.70 840.51,530.91 841.36,531.08 842.20,531.26 843.04,531.40 843.89,531.57 844.73,531.68 845.58,531.78 846.42,531.89 847.27,531.96 848.11,532.03 848.96,532.07 849.80,532.10 850.64,532.10 851.49,532.07 852.33,532.03 853.18,531.96 854.02,531.85 854.87,531.75 855.71,531.57 856.56,531.40 857.40,531.22 858.24,530.98 859.09,530.70 859.93,530.43 860.78,530.12 861.62,529.75 862.47,529.38 863.31,528.94 864.16,528.51 865.00,528.01" fill="none" stroke="#1769aa" stroke-width="3" stroke-linejoin="round"/>
<line x1="169.18" y1="180.81" x2="169.18" y2="197.22" stroke="#111" stroke-width="2"/>
<line x1="164.18" y1="180.81" x2="174.18" y2="180.81" stroke="#111" stroke-width="2"/>
<line x1="164.18" y1="197.22" x2="174.18" y2="197.22" stroke="#111" stroke-width="2"/>
<circle cx="169.18" cy="188.40" r="5.5" fill="white" stroke="#111" stroke-width="2.5"/>
<line x1="196.20" y1="198.03" x2="196.20" y2="214.44" stroke="#111" stroke-width="2"/>
<line x1="191.20" y1="198.03" x2="201.20" y2="198.03" stroke="#111" stroke-width="2"/>
<line x1="191.20" y1="214.44" x2="201.20" y2="214.44" stroke="#111" stroke-width="2"/>
<circle cx="196.20" cy="205.62" r="5.5" fill="white" stroke="#111" stroke-width="2.5"/>
<line x1="226.60" y1="212.93" x2="226.60" y2="229.34" stroke="#111" stroke-width="2"/>
<line x1="221.60" y1="212.93" x2="231.60" y2="212.93" stroke="#111" stroke-width="2"/>
<line x1="221.60" y1="229.34" x2="231.60" y2="229.34" stroke="#111" stroke-width="2"/>
<circle cx="226.60" cy="220.52" r="5.5" fill="white" stroke="#111" stroke-width="2.5"/>
<line x1="257.00" y1="242.60" x2="257.00" y2="259.01" stroke="#111" stroke-width="2"/>
<line x1="252.00" y1="242.60" x2="262.00" y2="242.60" stroke="#111" stroke-width="2"/>
<line x1="252.00" y1="259.01" x2="262.00" y2="259.01" stroke="#111" stroke-width="2"/>
<circle cx="257.00" cy="250.19" r="5.5" fill="white" stroke="#111" stroke-width="2.5"/>
<line x1="304.29" y1="242.60" x2="304.29" y2="259.01" stroke="#111" stroke-width="2"/>
<line x1="299.29" y1="242.60" x2="309.29" y2="242.60" stroke="#111" stroke-width="2"/>
<line x1="299.29" y1="259.01" x2="309.29" y2="259.01" stroke="#111" stroke-width="2"/>
<circle cx="304.29" cy="250.19" r="5.5" fill="white" stroke="#111" stroke-width="2.5"/>
<line x1="354.96" y1="255.54" x2="354.96" y2="271.95" stroke="#111" stroke-width="2"/>
<line x1="349.96" y1="255.54" x2="359.96" y2="255.54" stroke="#111" stroke-width="2"/>
<line x1="349.96" y1="271.95" x2="359.96" y2="271.95" stroke="#111" stroke-width="2"/>
<circle cx="354.96" cy="263.13" r="5.5" fill="white" stroke="#111" stroke-width="2.5"/>
<line x1="422.51" y1="275.50" x2="422.51" y2="291.91" stroke="#111" stroke-width="2"/>
<line x1="417.51" y1="275.50" x2="427.51" y2="275.50" stroke="#111" stroke-width="2"/>
<line x1="417.51" y1="291.91" x2="427.51" y2="291.91" stroke="#111" stroke-width="2"/>
<circle cx="422.51" cy="283.09" r="5.5" fill="white" stroke="#111" stroke-width="2.5"/>
<line x1="123" y1="93" x2="165" y2="93" stroke="#1769aa" stroke-width="3"/>
<text x="175" y="99" font-size="17">Scaled FRESCO (C = 0.1195)</text>
<circle cx="128" cy="125" r="5.5" fill="white" stroke="#111" stroke-width="2.5"/>
<text x="175" y="131" font-size="17">Experiment</text>
<text x="855" y="549" font-size="17" text-anchor="end">reduced chi-square = 10.68</text>
</g>
</svg>